<svg width="28" height="28" viewBox="0 0 28 28" fill="none" xmlns="http://www.w3.org/2000/svg">
<g id="wallet" clip-path="url(#clip0_20005128_10909)">
<g id="Group">
<g id="Group_2">
<path id="Vector" d="M22.1484 14.0551C20.3391 14.0551 18.8672 15.527 18.8672 17.3363C18.8672 19.1456 20.3391 20.6175 22.1484 20.6175H26.7968C26.8154 20.6175 26.8335 20.6157 26.8518 20.6148C26.8699 20.6156 26.8878 20.6175 26.9062 20.6175C27.5103 20.6175 27.9999 20.1278 27.9999 19.5237V10.9378C27.9999 9.48172 27.2843 8.19028 26.1868 7.39463L22.4659 1.29042C22.3142 1.04148 22.0693 0.863421 21.7857 0.795828C21.5021 0.728125 21.2033 0.776523 20.9555 0.930195L18.2115 2.63185L16.974 0.537648C16.8252 0.285868 16.5818 0.104196 16.2982 0.0331025C16.0145 -0.0379912 15.7141 0.00756343 15.4643 0.159376L4.92783 6.56283H3.28124C2.68728 6.56283 2.20237 6.08694 2.18782 5.49643C2.20237 4.90591 2.68728 4.43002 3.28124 4.43002H5.30468C5.90875 4.43002 6.39843 3.94035 6.39843 3.33628C6.39843 2.7322 5.90875 2.24253 5.30468 2.24253H3.28124C1.7337 2.24253 0.433069 3.31954 0.0891405 4.76334C0.0319374 4.89602 0 5.04203 0 5.19565V5.46908V5.52377V23.6253C0 26.0377 1.96262 28.0003 4.37499 28.0003H23.625C25.5111 28.0003 27.1793 26.7988 27.7758 25.0105C27.967 24.4375 27.6574 23.818 27.0844 23.6268C26.5114 23.4357 25.8919 23.7452 25.7007 24.3182C25.4025 25.2122 24.5684 25.8128 23.625 25.8128H4.37499C3.16881 25.8128 2.1875 24.8315 2.1875 23.6253V8.5627C2.52978 8.6841 2.89789 8.75033 3.28124 8.75033H23.625C24.8311 8.75033 25.8125 9.73164 25.8125 10.9378V14.0551H22.1484ZM25.8125 18.43H22.1484C21.5453 18.4301 21.0546 17.9394 21.0546 17.3363C21.0546 16.7332 21.5453 16.2425 22.1484 16.2425H25.8125V18.43ZM9.1398 6.56289L15.6541 2.6039L16.8188 4.57489C16.8411 4.62876 16.8668 4.68186 16.8986 4.73305C16.9224 4.77138 16.9487 4.80709 16.9762 4.84144L17.9934 6.56289H9.1398ZM20.5343 6.56283L19.3246 4.51556L21.1717 3.37013L23.1179 6.56283H20.5343Z" fill="url(#paint0_linear_20005128_10909)"/>
</g>
</g>
</g>
<defs>
<linearGradient id="paint0_linear_20005128_10909" x1="0" y1="14.0673" x2="27.9999" y2="14.0673" gradientUnits="userSpaceOnUse">
<stop stop-color="#6366F1"/>
<stop offset="0.5" stop-color="#8B5CF6"/>
<stop offset="1" stop-color="#D946EF"/>
</linearGradient>
<clipPath id="clip0_20005128_10909">
<rect width="28" height="28" fill="white"/>
</clipPath>
</defs>
</svg>
